<svg width="22" height="22" viewBox="0 0 22 22" fill="none" xmlns="http://www.w3.org/2000/svg">
<path d="M17.0365 0.25H16.9635C16.2243 0.249988 15.6168 0.249978 15.1253 0.29671C14.6146 0.345271 14.1522 0.449535 13.7317 0.70725C13.3141 0.963105 12.9631 1.31414 12.7072 1.73166C12.4495 2.15221 12.3453 2.61456 12.2967 3.12529C12.25 3.61679 12.25 4.2243 12.25 4.96344V5.03655C12.25 5.77569 12.25 6.38322 12.2967 6.87471C12.3453 7.38545 12.4495 7.84779 12.7072 8.26834C12.9631 8.68586 13.3141 9.0369 13.7317 9.29275C14.1522 9.55047 14.6146 9.65473 15.1253 9.70329C15.6168 9.75002 16.2243 9.75001 16.9634 9.75H17.0366C17.7757 9.75001 18.3832 9.75002 18.8747 9.70329C19.3854 9.65473 19.8478 9.55047 20.2683 9.29275C20.6859 9.0369 21.0369 8.68586 21.2928 8.26834C21.5505 7.84779 21.6547 7.38545 21.7033 6.87471C21.75 6.38322 21.75 5.7757 21.75 5.03656V4.96344C21.75 4.2243 21.75 3.61679 21.7033 3.12529C21.6547 2.61456 21.5505 2.15221 21.2928 1.73166C21.0369 1.31414 20.6859 0.963105 20.2683 0.70725C19.8478 0.449535 19.3854 0.345271 18.8747 0.29671C18.3832 0.249978 17.7757 0.249988 17.0365 0.25Z" fill="#1B8354"/>
<path d="M4.96345 0.25H5.03655C5.77569 0.249988 6.38322 0.249978 6.87471 0.29671C7.38545 0.345271 7.84779 0.449535 8.26834 0.70725C8.68586 0.963105 9.0369 1.31414 9.29275 1.73166C9.55047 2.15221 9.65473 2.61456 9.70329 3.12529C9.75002 3.61678 9.75001 4.22428 9.75 4.96341V5.03656C9.75001 5.77569 9.75002 6.38322 9.70329 6.87471C9.65473 7.38545 9.55047 7.84779 9.29275 8.26834C9.0369 8.68586 8.68586 9.0369 8.26834 9.29275C7.84779 9.55047 7.38545 9.65473 6.87471 9.70329C6.38322 9.75002 5.77572 9.75001 5.03659 9.75H4.96344C4.22431 9.75001 3.61678 9.75002 3.12529 9.70329C2.61456 9.65473 2.15221 9.55047 1.73166 9.29275C1.31414 9.0369 0.963105 8.68586 0.70725 8.26834C0.449535 7.84779 0.345271 7.38545 0.29671 6.87471C0.249978 6.38322 0.249988 5.7757 0.25 5.03656V4.96345C0.249988 4.22431 0.249978 3.61679 0.29671 3.12529C0.345271 2.61456 0.449535 2.15221 0.70725 1.73166C0.963105 1.31414 1.31414 0.963105 1.73166 0.70725C2.15221 0.449535 2.61456 0.345271 3.12529 0.29671C3.61679 0.249978 4.22431 0.249988 4.96345 0.25Z" fill="#1B8354"/>
<path d="M5.03655 12.25H4.96345C4.22433 12.25 3.61678 12.25 3.12529 12.2967C2.61456 12.3453 2.15221 12.4495 1.73166 12.7072C1.31414 12.9631 0.963105 13.3141 0.70725 13.7317C0.449535 14.1522 0.345271 14.6146 0.29671 15.1253C0.249978 15.6168 0.249988 16.2243 0.25 16.9635V17.0365C0.249988 17.7757 0.249978 18.3832 0.29671 18.8747C0.345271 19.3854 0.449535 19.8478 0.70725 20.2683C0.963105 20.6859 1.31414 21.0369 1.73166 21.2928C2.15221 21.5505 2.61456 21.6547 3.12529 21.7033C3.61679 21.75 4.2243 21.75 4.96344 21.75H5.03656C5.7757 21.75 6.38322 21.75 6.87471 21.7033C7.38545 21.6547 7.84779 21.5505 8.26834 21.2928C8.68586 21.0369 9.0369 20.6859 9.29275 20.2683C9.55047 19.8478 9.65473 19.3854 9.70329 18.8747C9.75002 18.3832 9.75001 17.7757 9.75 17.0366V16.9634C9.75001 16.2243 9.75002 15.6168 9.70329 15.1253C9.65473 14.6146 9.55047 14.1522 9.29275 13.7317C9.0369 13.3141 8.68586 12.9631 8.26834 12.7072C7.84779 12.4495 7.38545 12.3453 6.87471 12.2967C6.38322 12.25 5.77568 12.25 5.03655 12.25Z" fill="#1B8354"/>
<path d="M17.0365 12.25H16.9635C16.2243 12.25 15.6168 12.25 15.1253 12.2967C14.6146 12.3453 14.1522 12.4495 13.7317 12.7072C13.3141 12.9631 12.9631 13.3141 12.7072 13.7317C12.4495 14.1522 12.3453 14.6146 12.2967 15.1253C12.25 15.6168 12.25 16.2243 12.25 16.9635V17.0365C12.25 17.7757 12.25 18.3832 12.2967 18.8747C12.3453 19.3854 12.4495 19.8478 12.7072 20.2683C12.9631 20.6859 13.3141 21.0369 13.7317 21.2928C14.1522 21.5505 14.6146 21.6547 15.1253 21.7033C15.6168 21.75 16.2243 21.75 16.9634 21.75H17.0366C17.7757 21.75 18.3832 21.75 18.8747 21.7033C19.3854 21.6547 19.8478 21.5505 20.2683 21.2928C20.6859 21.0369 21.0369 20.6859 21.2928 20.2683C21.5505 19.8478 21.6547 19.3854 21.7033 18.8747C21.75 18.3832 21.75 17.7757 21.75 17.0366V16.9634C21.75 16.2243 21.75 15.6168 21.7033 15.1253C21.6547 14.6146 21.5505 14.1522 21.2928 13.7317C21.0369 13.3141 20.6859 12.9631 20.2683 12.7072C19.8478 12.4495 19.3854 12.3453 18.8747 12.2967C18.3832 12.25 17.7757 12.25 17.0365 12.25Z" fill="#1B8354"/>
</svg>
